<svg height="512pt" viewBox="0 0 512 512" width="512pt" xmlns="http://www.w3.org/2000/svg"><path d="m430.007812 139.6875 22.910157-38.179688s-10.609375-10.609374-21.21875-21.21875c-10.605469-10.605468-21.210938-21.210937-21.210938-21.210937l-38.179687 22.910156c-21.152344-13.917969-44.652344-23.628906-69.480469-28.660156l-2.761719-11.054687c-86.777344 30.175781-149.066406 112.667968-149.066406 209.726562 0 96.710938 61.847656 178.964844 148.144531 209.398438l4.0625-16.25c24.242188-4.960938 47.171875-14.410157 67.910157-27.851563l39.371093 23.621094 42.429688-42.429688-23.339844-38.898437c13.878906-20.890625 23.539063-44.132813 28.710937-68.660156l43.707032-10.929688v-60l-43.328125-10.832031c-5.03125-24.828125-14.742188-48.328125-28.660157-69.480469zm-168.007812 190.3125c-43.402344 0-80-36.089844-80-80 0-44.179688 35.820312-80 80-80 22.089844 0 42.089844 8.953125 56.566406 23.429688 14.476563 14.476562 23.429688 34.476562 23.429688 56.570312 0 44.179688-35.816406 80-79.996094 80zm0 0" fill="#e2e2e2"/><path d="m212.789062 283.917969-7.429687 7.429687c2.378906 8.90625 6.257813 17.191406 11.347656 24.585938 7.390625 5.085937 15.679688 8.96875 24.582031 11.34375l7.429688-7.429688 17.960938-53.890625zm0 0" fill="#feb756"/><path d="m241.289062 327.277344-148.859374 148.859375-28.289063-28.28125-28.28125-28.289063 59.980469-59.976562 43.019531-43.023438 45.859375-45.859375c7.351562 27.542969 29.03125 49.222657 56.570312 56.570313zm0 0" fill="#fff"/><path d="m118.339844 382.085938-59.980469 59.980468 17.03125 17.039063 17.039063 17.03125 141.585937-141.585938c-6.257813-5.097656-11.726563-11.121093-16.203125-17.867187-6.746094-4.472656-12.769531-9.945313-17.867188-16.203125zm0 0" fill="#fd3c65"/><path d="m78.28125 490.277344 14.144531-14.136719-7.289062-7.285156-10.519531-10.523438-17.761719-17.761719-14.136719 14.144532c-7.820312 7.8125-11.71875 18.042968-11.71875 28.28125 0 5.375 1.082031 10.742187 3.234375 15.761718 14.589844 6.257813 32.136719 3.4375 44.046875-8.480468zm0 0" fill="#4dbbeb"/><path d="m504.421875 210.296875-37.308594-9.324219c-5.097656-21.757812-13.605469-42.371094-25.351562-61.4375l19.730469-32.878906c2.359374-3.9375 1.742187-8.972656-1.503907-12.21875l-42.429687-42.429688c-3.246094-3.242187-8.28125-3.863281-12.214844-1.503906l-32.878906 19.730469c-19.066406-11.746094-39.683594-20.25-61.441406-25.351563l-9.324219-37.308593c-1.113281-4.453125-5.113281-7.574219-9.699219-7.574219h-60c-4.589844 0-8.589844 3.121094-9.703125 7.574219l-9.4375 37.742187c-21.582031 5.21875-41.929687 13.71875-60.636719 25.332032l-33.566406-20.144532c-3.9375-2.363281-8.972656-1.742187-12.21875 1.503906l-42.429688 42.429688c-3.246093 3.246094-3.863281 8.28125-1.503906 12.21875l20.472656 34.105469c-11.335937 18.664062-19.574218 38.738281-24.558593 59.824219l-38.84375 9.710937c-4.453125 1.113281-7.574219 5.113281-7.574219 9.699219v60c0 4.589844 3.121094 8.589844 7.574219 9.703125l39.273437 9.820312c5.074219 20.792969 13.214844 40.464844 24.261719 58.652344l-54.320313 54.324219c-.003906.003906-.003906.003906-.003906.003906l-14.132812 14.140625c-9.449219 9.4375-14.652344 21.996094-14.652344 35.355469 0 13.363281 5.203125 25.917968 14.648438 35.351562 9.441406 9.449219 21.996093 14.652344 35.351562 14.652344s25.910156-5.203125 35.347656-14.648438l14.152344-14.140624v-.003907l54.324219-54.324219c18.203125 11.050782 37.875 19.195313 58.652343 24.265626l9.820313 39.273437c1.113281 4.453125 5.113281 7.574219 9.703125 7.574219h60c4.585938 0 8.585938-3.121094 9.699219-7.574219l9.707031-38.84375c21.097656-4.992187 41.167969-13.230469 59.828125-24.550781l34.109375 20.464844c3.933594 2.359374 8.96875 1.738281 12.214844-1.503907l42.429687-42.429687c3.246094-3.246094 3.863281-8.28125 1.503907-12.21875l-20.144532-33.574219c11.613282-18.699219 20.117188-39.042969 25.335938-60.628906l37.738281-9.4375c4.453125-1.113281 7.574219-5.113281 7.574219-9.703125v-60c0-4.585938-3.121094-8.585938-7.574219-9.699219zm-401.515625 156.367187c.015625-.015624.027344-.027343.042969-.042968l43.046875-43.046875c.015625-.015625.03125-.03125.050781-.050781l34.742187-34.738282c8.863282 18.542969 23.890626 33.566406 42.425782 42.429688l-34.742188 34.738281c-.015625.015625-.03125.03125-.046875.046875l-43.050781 43.050781c-.015625.015625-.027344.03125-.042969.042969l-52.902343 52.902344-42.429688-42.425782zm89.09375-116.664062c0-38.597656 31.402344-70 70-70s70 31.402344 70 70-31.402344 70-70 70c-.925781 0-1.847656-.027344-2.769531-.0625l27.253906-81.777344c1.199219-3.59375.265625-7.554687-2.414063-10.234375-2.679687-2.675781-6.640624-3.609375-10.234374-2.414062l-81.777344 27.253906c-.035156-.917969-.058594-1.84375-.058594-2.765625zm46.492188 65.933594c-19.75-7.03125-35.398438-22.675782-42.429688-42.425782l1.488281-1.488281 63.636719-21.210937-21.207031 63.636718zm-188.492188 176.066406c-8.011719 0-15.542969-3.121094-21.214844-8.796875-5.664062-5.660156-8.785156-13.191406-8.785156-21.207031s3.121094-15.542969 8.792969-21.210938l7.070312-7.074218 42.421875 42.421874-7.078125 7.074219c-5.667969 5.671875-13.199219 8.792969-21.207031 8.792969zm441.996094-219.808594-36.132813 9.035156c-3.714843.929688-6.570312 3.894532-7.359375 7.640626-4.953125 23.488281-14.121094 45.417968-27.253906 65.1875-2.136719 3.210937-2.234375 7.367187-.246094 10.675781l19.320313 32.207031-31.386719 31.386719-32.675781-19.601563c-3.273438-1.964844-7.375-1.894531-10.582031.183594-19.832032 12.851562-41.523438 21.75-64.476563 26.445312-3.769531.769532-6.761719 3.636719-7.695313 7.371094l-9.316406 37.273438h-44.386718l-9.414063-37.65625c-.925781-3.703125-3.882813-6.558594-7.621094-7.351563-19.222656-4.09375-37.445312-11.046875-54.339843-20.710937l28.945312-28.945313c20.078125 9.605469 42.261719 14.664063 64.625 14.664063 82.707031 0 149.996094-67.289063 149.996094-149.996094 0-31.078125-9.457032-60.910156-27.351563-86.277344-17.488281-24.792968-41.667969-43.519531-69.921875-54.160156-5.167968-1.949219-10.9375.664062-12.882812 5.832031-1.945313 5.167969.664062 10.9375 5.832031 12.882813 50.4375 18.996094 84.324219 67.910156 84.324219 121.722656 0 71.683594-58.316406 130-130 130-16.992188 0-33.855469-3.375-49.476563-9.808594l31.910157-31.914062c5.75 1.144531 11.636718 1.722656 17.566406 1.722656 49.625 0 90-40.375 90-90s-40.375-90-90-90-90 40.375-90 90c0 5.933594.578125 11.820312 1.722656 17.566406l-31.914062 31.910156c-6.433594-15.621093-9.808594-32.484374-9.808594-49.476562 0-53.8125 33.886718-102.726562 84.324218-121.722656 5.167969-1.945313 7.78125-7.714844 5.835938-12.882813-1.949219-5.167969-7.714844-7.78125-12.882812-5.835937-28.257813 10.644531-52.4375 29.371094-69.921876 54.164062-17.894531 25.367188-27.355468 55.199219-27.355468 86.273438 0 22.363281 5.0625 44.546875 14.664062 64.625l-28.945312 28.945312c-9.65625-16.878906-16.613282-35.101562-20.707032-54.34375-.796874-3.734375-3.648437-6.691406-7.355468-7.617187l-37.65625-9.417969v-44.382812l37.277344-9.316407c3.734374-.933593 6.601562-3.925781 7.371093-7.699219 4.6875-22.9375 13.585938-44.628906 26.453125-64.46875 2.078125-3.207031 2.148438-7.3125.183594-10.589843l-19.609375-32.671875 31.386719-31.386719 32.195312 19.320313c3.308594 1.988281 7.464844 1.890624 10.675782-.242188 19.78125-13.136719 41.71875-22.304688 65.199218-27.253906 3.746094-.789063 6.710938-3.648438 7.640625-7.359375l9.035157-36.136719h44.386718l8.9375 35.753906c.933594 3.742188 3.9375 6.609375 7.714844 7.375 23.601562 4.78125 45.796875 13.941406 65.96875 27.214844 3.207031 2.109375 7.34375 2.199219 10.640625.222656l31.488281-18.894531 31.386719 31.386719-18.894531 31.484375c-1.976563 3.296875-1.890625 7.433593.222656 10.644531 13.273438 20.171875 22.429688 42.363281 27.210938 65.96875.765624 3.777344 3.636718 6.78125 7.375 7.714844l35.757812 8.9375v44.382812zm0 0"/><path d="m262 100c-5.523438 0-10 4.480469-10 10s4.476562 10 10 10c5.519531 0 10-4.480469 10-10s-4.480469-10-10-10zm0 0"/></svg>
